<svg version="1.0" preserveAspectRatio="xMidYMid meet" height="200" viewBox="0 0 450 149.999998" zoomAndPan="magnify" width="600" xmlns:xlink="http://www.w3.org/1999/xlink" xmlns="http://www.w3.org/2000/svg"><defs><g></g></defs><g fill-opacity="1" fill="#000000"><g transform="translate(15.000003, 104.533686)"><g><path d="M 29.5625 -72.578125 L 84.578125 -72.578125 C 84.191406 -69.265625 83.773438 -66.554688 83.328125 -64.453125 C 82.890625 -62.359375 82.523438 -60.773438 82.234375 -59.703125 C 81.648438 -57.847656 80.921875 -56.382812 80.046875 -55.3125 C 78.867188 -54.039062 77.015625 -53.113281 74.484375 -52.53125 C 72.429688 -52.238281 67.894531 -52.09375 60.875 -52.09375 L 34.6875 -52.09375 C 33.90625 -52.09375 33.21875 -52.09375 32.625 -52.09375 C 32.039062 -52.09375 31.601562 -52.046875 31.3125 -51.953125 C 30.53125 -51.953125 29.992188 -51.851562 29.703125 -51.65625 C 29.210938 -51.363281 28.820312 -50.828125 28.53125 -50.046875 C 28.4375 -49.753906 28.363281 -49.335938 28.3125 -48.796875 C 28.257812 -48.265625 28.140625 -47.554688 27.953125 -46.671875 L 24.296875 -20.78125 L 77.265625 -20.78125 C 76.578125 -15.125 75.988281 -11.316406 75.5 -9.359375 C 74.914062 -6.429688 73.941406 -4.285156 72.578125 -2.921875 C 71.503906 -1.847656 69.550781 -1.066406 66.71875 -0.578125 C 64.675781 -0.285156 60.382812 -0.140625 53.84375 -0.140625 L 21.359375 -0.140625 L 20.046875 9.078125 C 19.660156 11.804688 19.316406 14.097656 19.015625 15.953125 C 18.722656 17.804688 18.484375 19.269531 18.296875 20.34375 C 18.003906 21.507812 17.707031 22.53125 17.40625 23.40625 C 17.113281 24.289062 16.726562 25.070312 16.25 25.75 C 15.175781 27.40625 13.320312 28.53125 10.6875 29.125 C 9.707031 29.3125 8 29.476562 5.5625 29.625 C 3.125 29.769531 0.0507812 29.84375 -3.65625 29.84375 L 1.90625 -10.09375 L 7.90625 -52.09375 C 8.394531 -55.21875 8.785156 -57.800781 9.078125 -59.84375 C 9.367188 -61.894531 9.609375 -63.410156 9.796875 -64.390625 C 10.679688 -67.410156 11.953125 -69.457031 13.609375 -70.53125 C 14.972656 -71.601562 16.925781 -72.1875 19.46875 -72.28125 C 20.539062 -72.476562 21.90625 -72.578125 23.5625 -72.578125 C 25.21875 -72.578125 27.21875 -72.578125 29.5625 -72.578125 Z M 29.5625 -72.578125"></path></g></g></g><g fill-opacity="1" fill="#000000"><g transform="translate(98.699827, 104.533686)"><g><path d="M 7.171875 -52.09375 C 7.753906 -56.476562 8.191406 -59.351562 8.484375 -60.71875 C 9.359375 -65.207031 10.53125 -68.1875 12 -69.65625 C 13.363281 -71.113281 15.460938 -71.988281 18.296875 -72.28125 C 19.367188 -72.476562 20.878906 -72.578125 22.828125 -72.578125 C 24.773438 -72.578125 27.210938 -72.578125 30.140625 -72.578125 L 63.796875 -72.578125 C 67.410156 -72.578125 70.363281 -72.523438 72.65625 -72.421875 C 74.945312 -72.328125 76.578125 -72.132812 77.546875 -71.84375 C 79.304688 -71.550781 80.578125 -70.769531 81.359375 -69.5 C 82.035156 -68.53125 82.375 -66.921875 82.375 -64.671875 L 82.375 -63.21875 C 82.375 -61.363281 81.9375 -57.65625 81.0625 -52.09375 L 76.671875 -20.78125 C 75.992188 -15.601562 75.410156 -12.039062 74.921875 -10.09375 C 74.335938 -7.363281 73.601562 -5.363281 72.71875 -4.09375 C 71.644531 -2.4375 69.695312 -1.316406 66.875 -0.734375 C 65.894531 -0.628906 64.332031 -0.503906 62.1875 -0.359375 C 60.039062 -0.210938 57.3125 -0.140625 54 -0.140625 L 19.609375 -0.140625 C 16.484375 -0.140625 13.894531 -0.210938 11.84375 -0.359375 C 9.800781 -0.503906 8.242188 -0.628906 7.171875 -0.734375 C 5.023438 -1.117188 3.460938 -1.945312 2.484375 -3.21875 C 2.191406 -3.800781 1.945312 -4.503906 1.75 -5.328125 C 1.5625 -6.160156 1.46875 -7.066406 1.46875 -8.046875 L 1.46875 -9.796875 C 1.65625 -11.753906 2.09375 -15.414062 2.78125 -20.78125 C 3.363281 -24 4.828125 -34.4375 7.171875 -52.09375 Z M 35.125 -52.09375 C 33.945312 -52.09375 32.96875 -52.09375 32.1875 -52.09375 C 31.40625 -52.09375 30.820312 -52.046875 30.4375 -51.953125 C 29.457031 -51.753906 28.773438 -51.457031 28.390625 -51.0625 C 28.097656 -50.769531 27.804688 -49.941406 27.515625 -48.578125 C 27.515625 -48.484375 27.488281 -48.265625 27.4375 -47.921875 C 27.382812 -47.578125 27.3125 -47.160156 27.21875 -46.671875 L 23.5625 -20.78125 L 54 -20.78125 C 54.675781 -20.976562 55.113281 -21.171875 55.3125 -21.359375 C 55.695312 -21.753906 55.890625 -22.195312 55.890625 -22.6875 C 56.085938 -22.976562 56.234375 -23.390625 56.328125 -23.921875 C 56.429688 -24.460938 56.53125 -25.171875 56.625 -26.046875 L 60.28125 -52.09375 Z M 35.125 -52.09375"></path></g></g></g><g fill-opacity="1" fill="#000000"><g transform="translate(182.399651, 104.533686)"><g><path d="M 8.78125 -51.796875 C 9.269531 -55.210938 9.679688 -57.96875 10.015625 -60.0625 C 10.359375 -62.164062 10.628906 -63.703125 10.828125 -64.671875 C 11.703125 -67.503906 12.875 -69.410156 14.34375 -70.390625 C 15.507812 -71.265625 17.265625 -71.847656 19.609375 -72.140625 C 20.484375 -72.335938 21.628906 -72.4375 23.046875 -72.4375 C 24.460938 -72.4375 26.097656 -72.4375 27.953125 -72.4375 L 69.0625 -72.4375 C 71.019531 -72.4375 72.703125 -72.4375 74.109375 -72.4375 C 75.523438 -72.4375 76.671875 -72.335938 77.546875 -72.140625 C 79.597656 -71.847656 81.015625 -71.3125 81.796875 -70.53125 C 82.960938 -69.65625 83.644531 -67.945312 83.84375 -65.40625 L 83.84375 -64.390625 C 83.84375 -62.429688 83.40625 -58.234375 82.53125 -51.796875 L 81.796875 -46.53125 L 78.875 -25.90625 L 78.140625 -20.484375 C 77.742188 -17.554688 77.398438 -15.117188 77.109375 -13.171875 C 76.816406 -11.222656 76.523438 -9.757812 76.234375 -8.78125 C 75.941406 -7.613281 75.597656 -6.566406 75.203125 -5.640625 C 74.816406 -4.710938 74.332031 -3.953125 73.75 -3.359375 C 72.582031 -2.097656 70.773438 -1.171875 68.328125 -0.578125 C 67.359375 -0.484375 65.703125 -0.363281 63.359375 -0.21875 C 61.015625 -0.0703125 58.039062 0 54.4375 0 L 57.359375 -20.484375 L 58.09375 -25.90625 L 61.015625 -46.53125 L 61.75 -51.796875 L 34.96875 -51.796875 C 34.582031 -51.898438 34.21875 -51.953125 33.875 -51.953125 C 33.53125 -51.953125 33.210938 -51.953125 32.921875 -51.953125 C 32.335938 -51.953125 31.945312 -51.898438 31.75 -51.796875 C 31.257812 -51.796875 30.773438 -51.648438 30.296875 -51.359375 C 29.898438 -50.972656 29.554688 -50.390625 29.265625 -49.609375 C 29.265625 -49.210938 29.117188 -48.1875 28.828125 -46.53125 L 25.90625 -25.90625 L 25.171875 -20.484375 C 24.773438 -17.265625 24.359375 -14.601562 23.921875 -12.5 C 23.484375 -10.40625 23.117188 -8.820312 22.828125 -7.75 C 22.242188 -5.414062 21.171875 -3.613281 19.609375 -2.34375 C 18.335938 -1.46875 16.382812 -0.785156 13.75 -0.296875 C 12.78125 -0.191406 11.269531 -0.113281 9.21875 -0.0625 C 7.164062 -0.0195312 4.582031 0 1.46875 0 L 4.390625 -20.484375 L 5.125 -25.90625 L 8.046875 -46.53125 Z M 8.78125 -51.796875"></path></g></g></g><g fill-opacity="1" fill="#000000"><g transform="translate(267.562751, 104.533686)"><g><path d="M 31.3125 -72.578125 L 63.21875 -72.578125 C 65.851562 -72.578125 68.046875 -72.578125 69.796875 -72.578125 C 71.554688 -72.578125 72.875 -72.53125 73.75 -72.4375 C 76.96875 -72.144531 79.160156 -71.554688 80.328125 -70.671875 C 81.691406 -69.703125 82.375 -67.703125 82.375 -64.671875 C 82.375 -64.285156 82.375 -63.820312 82.375 -63.28125 C 82.375 -62.75 82.328125 -62.140625 82.234375 -61.453125 C 82.140625 -60.671875 81.992188 -59.5 81.796875 -57.9375 C 81.597656 -56.382812 81.351562 -54.4375 81.0625 -52.09375 L 80.1875 -46.53125 C 79.800781 -43.601562 79.457031 -41.1875 79.15625 -39.28125 C 78.863281 -37.382812 78.570312 -35.945312 78.28125 -34.96875 C 77.695312 -32.332031 76.769531 -30.285156 75.5 -28.828125 C 74.039062 -27.554688 71.945312 -26.773438 69.21875 -26.484375 C 67.363281 -26.191406 63.847656 -26.046875 58.671875 -26.046875 L 27.953125 -26.046875 C 26.773438 -26.046875 26.039062 -26 25.75 -25.90625 C 25.257812 -25.90625 24.867188 -25.757812 24.578125 -25.46875 C 24.390625 -25.269531 24.195312 -24.679688 24 -23.703125 C 24 -23.316406 23.851562 -22.289062 23.5625 -20.625 L 55.75 -20.625 C 61.507812 -20.625 65.164062 -20.476562 66.71875 -20.1875 C 69.0625 -19.894531 70.671875 -19.164062 71.546875 -18 C 72.722656 -16.832031 73.359375 -14.6875 73.453125 -11.5625 C 73.648438 -10.6875 73.75 -9.515625 73.75 -8.046875 C 73.75 -6.585938 73.75 -4.734375 73.75 -2.484375 L 73.75 -0.140625 L 18.4375 -0.140625 C 15.507812 -0.140625 13.09375 -0.210938 11.1875 -0.359375 C 9.289062 -0.503906 7.804688 -0.628906 6.734375 -0.734375 C 4.679688 -1.316406 3.21875 -2.242188 2.34375 -3.515625 C 1.757812 -4.585938 1.46875 -6.097656 1.46875 -8.046875 L 1.46875 -9.078125 C 1.5625 -10.929688 2 -14.832031 2.78125 -20.78125 L 7.171875 -52.09375 C 7.660156 -54.726562 8.050781 -56.898438 8.34375 -58.609375 C 8.632812 -60.316406 8.828125 -61.609375 8.921875 -62.484375 C 9.703125 -66.085938 10.726562 -68.476562 12 -69.65625 C 13.5625 -71.019531 15.609375 -71.847656 18.140625 -72.140625 C 20.191406 -72.429688 24.582031 -72.578125 31.3125 -72.578125 Z M 31.609375 -51.953125 C 30.140625 -51.953125 29.3125 -51.898438 29.125 -51.796875 C 28.925781 -51.796875 28.628906 -51.601562 28.234375 -51.21875 C 28.140625 -51.113281 28.066406 -50.941406 28.015625 -50.703125 C 27.972656 -50.460938 27.851562 -50.191406 27.65625 -49.890625 C 27.65625 -49.503906 27.507812 -48.429688 27.21875 -46.671875 L 57.5 -46.671875 C 58.28125 -46.773438 58.867188 -47.019531 59.265625 -47.40625 C 59.554688 -47.695312 59.703125 -48.085938 59.703125 -48.578125 C 59.796875 -49.160156 59.941406 -50.285156 60.140625 -51.953125 Z M 31.609375 -51.953125"></path></g></g></g><g fill-opacity="1" fill="#000000"><g transform="translate(351.262576, 104.533686)"><g><path d="M 7.171875 -52.09375 C 7.753906 -56.476562 8.191406 -59.351562 8.484375 -60.71875 C 9.359375 -65.207031 10.53125 -68.1875 12 -69.65625 C 13.363281 -71.113281 15.460938 -71.988281 18.296875 -72.28125 C 19.367188 -72.476562 20.878906 -72.578125 22.828125 -72.578125 C 24.773438 -72.578125 27.210938 -72.578125 30.140625 -72.578125 L 63.796875 -72.578125 C 67.410156 -72.578125 70.363281 -72.523438 72.65625 -72.421875 C 74.945312 -72.328125 76.578125 -72.132812 77.546875 -71.84375 C 79.304688 -71.550781 80.578125 -70.769531 81.359375 -69.5 C 82.035156 -68.53125 82.375 -66.921875 82.375 -64.671875 L 82.375 -63.21875 C 82.375 -61.363281 81.9375 -57.65625 81.0625 -52.09375 L 76.671875 -20.78125 C 75.992188 -15.601562 75.410156 -12.039062 74.921875 -10.09375 C 74.335938 -7.363281 73.601562 -5.363281 72.71875 -4.09375 C 71.644531 -2.4375 69.695312 -1.316406 66.875 -0.734375 C 65.894531 -0.628906 64.332031 -0.503906 62.1875 -0.359375 C 60.039062 -0.210938 57.3125 -0.140625 54 -0.140625 L 19.609375 -0.140625 C 16.484375 -0.140625 13.894531 -0.210938 11.84375 -0.359375 C 9.800781 -0.503906 8.242188 -0.628906 7.171875 -0.734375 C 5.023438 -1.117188 3.460938 -1.945312 2.484375 -3.21875 C 2.191406 -3.800781 1.945312 -4.503906 1.75 -5.328125 C 1.5625 -6.160156 1.46875 -7.066406 1.46875 -8.046875 L 1.46875 -9.796875 C 1.65625 -11.753906 2.09375 -15.414062 2.78125 -20.78125 C 3.363281 -24 4.828125 -34.4375 7.171875 -52.09375 Z M 35.125 -52.09375 C 33.945312 -52.09375 32.96875 -52.09375 32.1875 -52.09375 C 31.40625 -52.09375 30.820312 -52.046875 30.4375 -51.953125 C 29.457031 -51.753906 28.773438 -51.457031 28.390625 -51.0625 C 28.097656 -50.769531 27.804688 -49.941406 27.515625 -48.578125 C 27.515625 -48.484375 27.488281 -48.265625 27.4375 -47.921875 C 27.382812 -47.578125 27.3125 -47.160156 27.21875 -46.671875 L 23.5625 -20.78125 L 54 -20.78125 C 54.675781 -20.976562 55.113281 -21.171875 55.3125 -21.359375 C 55.695312 -21.753906 55.890625 -22.195312 55.890625 -22.6875 C 56.085938 -22.976562 56.234375 -23.390625 56.328125 -23.921875 C 56.429688 -24.460938 56.53125 -25.171875 56.625 -26.046875 L 60.28125 -52.09375 Z M 35.125 -52.09375"></path></g></g></g></svg>